Coordinates
version=1
nRows=15
nColumns=46
inDegrees=yes

Units are S.I. units (second, meters, Newtons, ...)
Angles are in degrees.

endheader
time	pelvis_tilt	pelvis_list	pelvis_rotation	pelvis_tx	pelvis_ty	pelvis_tz	bb_angle	bb_tx	bb_ty	bb_tz	hip_flexion_r	hip_adduction_r	hip_rotation_r	knee_angle_r	knee_angle_r_beta	ankle_angle_r	subtalar_angle_r	mtp_angle_r	crank_angle_r	hip_flexion_l	hip_adduction_l	hip_rotation_l	knee_angle_l	knee_angle_l_beta	ankle_angle_l	subtalar_angle_l	mtp_angle_l	crank_angle_l	lumbar_extension	lumbar_bending	lumbar_rotation	arm_flex_r	arm_add_r	arm_rot_r	elbow_flex_r	pro_sup_r	wrist_flex_r	wrist_dev_r	arm_flex_l	arm_add_l	arm_rot_l	elbow_flex_l	pro_sup_l	wrist_flex_l	wrist_dev_l
      2.50500000	    -17.89407712	      7.50234739	     10.40445876	      0.26713229	      1.15019472	     -0.25957953	      0.00000000	      0.50000000	      0.00000000	      0.25000000	     30.29125327	    -16.90803041	    -12.88556547	     30.45141428	      0.53147744	    -35.49336070	    -11.43297886	      0.00000000	      0.00000000	     83.09882297	      4.11050558	     -3.26374404	    106.83055198	      1.86454487	      1.20597851	     -3.11341789	      0.00000000	      0.00000000	    -59.27866709	      0.15495450	    -13.22184208	     83.53825133	     -5.41663675	     49.06907921	     20.11757262	     36.67304987	      0.00000000	      0.00000000	     82.99875150	    -14.70530222	     52.35207105	     40.97060935	     42.81130306	      0.00000000	      0.00000000
      2.51000000	    -18.30349857	      7.47213576	     10.68120005	      0.26635327	      1.15114473	     -0.25888559	      0.00000000	      0.50000000	      0.00000000	      0.25000000	     31.26259292	    -16.88651761	    -11.86133337	     32.18499905	      0.56173420	    -36.31269351	    -12.91995994	      0.00000000	      0.00000000	     83.38805515	      4.70542460	     -3.14711649	    105.51554538	      1.84159368	      1.79271140	     -3.27581940	      0.00000000	      0.00000000	    -59.11656205	      0.14815914	    -13.08573712	     83.36819542	     -5.85207647	     49.16716857	     20.37586868	     36.78428902	      0.00000000	      0.00000000	     82.87914324	    -14.45614951	     51.83403311	     41.55492174	     42.88092547	      0.00000000	      0.00000000
      2.51500000	    -18.64554589	      7.34527651	     10.91571003	      0.26564843	      1.15195854	     -0.25820524	      0.00000000	      0.50000000	      0.00000000	      0.25000000	     32.26622873	    -16.74177692	    -10.80656754	     34.11685936	      0.59545153	    -36.79395392	    -13.97984462	      0.00000000	      0.00000000	     83.47997830	      5.24852779	     -2.90911586	    104.13821526	      1.81755473	      2.62471882	     -3.46074211	      0.00000000	      0.00000000	    -59.01136843	      0.23720232	    -12.90127138	     83.34858798	     -6.34664277	     49.16785733	     20.80434049	     36.91578348	      0.00000000	      0.00000000	     82.78057876	    -14.27670152	     51.11598409	     42.13364771	     42.93077806	      0.00000000	      0.00000000
      2.52000000	    -18.79453426	      7.12008279	     11.19588021	      0.26498766	      1.15288607	     -0.25756436	      0.00000000	      0.50000000	      0.00000000	      0.25000000	     33.07980214	    -16.48443540	     -9.88881250	     36.15221987	      0.63097527	    -36.99565360	    -14.84919631	      0.00000000	      0.00000000	     83.24513431	      5.84291409	     -2.51944407	    102.62319043	      1.79111256	      3.52414758	     -3.82620889	      0.00000000	      0.00000000	    -59.08513616	      0.47555947	    -12.67219283	     83.45323971	     -6.71746793	     49.04916372	     20.99938249	     36.95897017	      0.00000000	      0.00000000	     82.84054152	    -14.17712162	     50.74613569	     42.46210726	     42.95903461	      0.00000000	      0.00000000
      2.52500000	    -19.11615306	      6.98311841	     11.39321997	      0.26432700	      1.15326975	     -0.25686886	      0.00000000	      0.50000000	      0.00000000	      0.25000000	     34.27046832	    -16.27800963	     -8.82194814	     38.51125376	      0.67214818	    -37.07602574	    -15.98529310	      0.00000000	      0.00000000	     83.05007102	      6.36715269	     -2.23523847	    100.97620188	      1.76236719	      4.37279360	     -4.14184305	      0.00000000	      0.00000000	    -58.92011825	      0.52098464	    -12.47966094	     83.30745519	     -7.18334396	     48.85880938	     21.34454897	     37.02879923	      0.00000000	      0.00000000	     82.82870212	    -13.95099920	     50.34664901	     42.89631390	     43.00566044	      0.00000000	      0.00000000
      2.53000000	    -19.53872307	      6.78336156	     11.46759758	      0.26380848	      1.15324111	     -0.25593128	      0.00000000	      0.50000000	      0.00000000	      0.25000000	     35.65257699	    -15.91825333	     -7.68242766	     40.94924205	      0.71469910	    -37.14066818	    -16.98370889	      0.00000000	      0.00000000	     82.82541370	      6.68317303	     -1.92906181	     99.22616902	      1.73182335	      5.17698559	     -4.52514585	      0.00000000	      0.00000000	    -58.57726072	      0.44238880	    -12.22023913	     82.95805339	     -7.62516132	     48.47963694	     22.06752637	     37.16334971	      0.00000000	      0.00000000	     82.60165124	    -13.82346773	     49.76757754	     43.35212536	     43.05310421	      0.00000000	      0.00000000
      2.53500000	    -19.84058336	      6.46992267	     11.54592631	      0.26337061	      1.15312028	     -0.25516790	      0.00000000	      0.50000000	      0.00000000	      0.25000000	     36.88487291	    -15.44698376	     -6.68831531	     43.39927595	      0.75746026	    -36.90151515	    -17.71555775	      0.00000000	      0.00000000	     82.39933091	      6.99455508	     -1.47591120	     97.37758303	      1.69955944	      5.97549396	     -5.09469344	      0.00000000	      0.00000000	    -58.36536739	      0.52882051	    -11.83133256	     82.38026632	     -8.26992257	     46.97457210	     24.09879574	     37.54180521	      0.00000000	      0.00000000	     82.20177544	    -13.59235373	     48.37016352	     44.05822639	     43.14484575	      0.00000000	      0.00000000
      2.54000000	    -20.05968974	      6.28206582	     11.62594959	      0.26302740	      1.15306957	     -0.25445148	      0.00000000	      0.50000000	      0.00000000	      0.25000000	     38.04108673	    -15.10367222	     -5.74153316	     45.88662300	      0.80087265	    -36.66164717	    -18.40712308	      0.00000000	      0.00000000	     81.77051719	      7.30472236	     -1.37184001	     95.16449689	      1.66093380	      6.02416147	     -6.46437823	      0.00000000	      0.00000000	    -58.18394310	      0.53323257	    -11.64613432	     82.25290258	     -8.34498123	     46.62256985	     24.10303137	     37.56275067	      0.00000000	      0.00000000	     82.16350993	    -13.51622601	     48.25771330	     44.15015046	     43.18163011	      0.00000000	      0.00000000
      2.54500000	    -20.11738439	      5.95416065	     11.63991523	      0.26280042	      1.15289737	     -0.25368906	      0.00000000	      0.50000000	      0.00000000	      0.25000000	     39.03665851	    -14.61753995	     -5.06388116	     48.39850378	      0.84471324	    -36.28005228	    -19.06243145	      0.00000000	      0.00000000	     80.90978714	      7.50620059	     -1.13598725	     92.83790307	      1.62032708	      6.03476380	     -7.84858597	      0.00000000	      0.00000000	    -58.13411663	      0.64033384	    -11.30745391	     82.27422668	     -8.37561660	     46.43461733	     24.13406165	     37.57511505	      0.00000000	      0.00000000	     82.14192103	    -13.52800600	     48.13917501	     44.27192133	     43.20671935	      0.00000000	      0.00000000
      2.55000000	    -20.39787890	      5.74280487	     11.49934839	      0.26258740	      1.15220433	     -0.25291292	      0.00000000	      0.50000000	      0.00000000	      0.25000000	     40.37451962	    -14.19766961	     -4.18229897	     50.94966279	      0.88923937	    -35.87348359	    -19.28579201	      0.00000000	      0.00000000	     80.16029240	      7.60320449	     -1.01152901	     90.45355308	      1.57871232	      5.72867786	     -9.61152248	      0.00000000	      0.00000000	    -57.79460312	      0.50149219	    -11.14579243	     82.05725206	     -8.27688468	     46.07907399	     24.17379233	     37.61520291	      0.00000000	      0.00000000	     81.85507732	    -13.59833153	     47.82979302	     44.53647169	     43.26239471	      0.00000000	      0.00000000
      2.55500000	    -20.38776494	      5.35599360	     11.27898945	      0.26259632	      1.15153009	     -0.25235396	      0.00000000	      0.50000000	      0.00000000	      0.25000000	     41.36488572	    -13.62792354	     -3.64315675	     53.43047292	      0.93253767	    -35.38239544	    -19.65114729	      0.00000000	      0.00000000	     79.04501383	      7.68478328	     -0.26742664	     88.38812766	      1.54266385	      6.46284454	     -9.93771323	      0.00000000	      0.00000000	    -57.71641794	      0.51372682	    -10.75566938	     82.06603136	     -8.20007925	     45.95092648	     24.13401087	     37.62559122	      0.00000000	      0.00000000	     81.66743355	    -13.64203385	     47.62075877	     44.72702409	     43.29301308	      0.00000000	      0.00000000
      2.56000000	    -20.38608065	      4.97146157	     11.01761467	      0.26268709	      1.15040982	     -0.25172808	      0.00000000	      0.50000000	      0.00000000	      0.25000000	     42.41749639	    -13.08977255	     -3.19374855	     55.99105492	      0.97722826	    -34.80181588	    -19.84914458	      0.00000000	      0.00000000	     77.85220021	      7.76527137	      0.95350021	     86.73392797	      1.51379262	      8.15201386	     -9.02638970	      0.00000000	      0.00000000	    -57.56550646	      0.48138302	    -10.39244755	     82.02308852	     -8.13848736	     45.83195584	     23.94401089	     37.61482182	      0.00000000	      0.00000000	     81.37913701	    -13.69249532	     47.33109018	     45.00305015	     43.33200631	      0.00000000	      0.00000000
      2.56500000	    -20.22871638	      4.31151857	     10.70256795	      0.26289821	      1.14992057	     -0.25095339	      0.00000000	      0.50000000	      0.00000000	      0.25000000	     43.14038918	    -12.28695394	     -3.06165260	     58.07209045	      1.01354918	    -34.82165552	    -19.89571179	      0.00000000	      0.00000000	     76.52634208	      7.57706528	      1.90582633	     84.46774524	      1.47424027	      8.36084145	     -9.21558096	      0.00000000	      0.00000000	    -57.58880598	      0.59234821	     -9.81972808	     81.92726658	     -7.94202826	     45.85686621	     23.95392059	     37.62639166	      0.00000000	      0.00000000	     81.21575582	    -13.81186792	     47.24704049	     45.03324509	     43.33481271	      0.00000000	      0.00000000
      2.57000000	    -20.39800284	      4.11779399	     10.31600554	      0.26289653	      1.14812775	     -0.25048744	      0.00000000	      0.50000000	      0.00000000	      0.25000000	     44.54503647	    -12.01418640	     -2.63247847	     60.84137311	      1.06188228	    -33.70694938	    -19.90359207	      0.00000000	      0.00000000	     75.53410239	      7.55030959	      2.25130804	     82.27529810	      1.43597484	      8.22274199	    -10.63815772	      0.00000000	      0.00000000	    -57.28951879	      0.42624654	     -9.85228571	     82.26898000	     -7.13488227	     45.63120621	     22.83883166	     37.71875391	      0.00000000	      0.00000000	     79.88477049	    -14.04113774	     44.29518788	     46.95400038	     43.54541349	      0.00000000	      0.00000000
      2.57500000	    -20.24176449	      3.62468129	      9.91476491	      0.26306771	      1.14690810	     -0.24999404	      0.00000000	      0.50000000	      0.00000000	      0.25000000	     45.43159211	    -11.47935112	     -2.63849285	     63.20324840	      1.10310478	    -33.29694514	    -20.21547521	      0.00000000	      0.00000000	     74.19527392	      7.34433856	      3.00878685	     80.12444048	      1.39843530	      8.27762662	    -11.28560761	      0.00000000	      0.00000000	    -57.28326598	      0.38049530	     -9.32912307	     82.29735372	     -7.10624615	     45.64962553	     22.77214690	     37.73444801	      0.00000000	      0.00000000	     79.71180906	    -14.01420622	     44.17591488	     47.09849973	     43.57532394	      0.00000000	      0.00000000
